<?xml version="1.0" encoding="UTF-8"?>
<svg xmlns="http://www.w3.org/2000/svg" xmlns:xlink="http://www.w3.org/1999/xlink" width="189" height="124.200005" viewBox="0 0 189 124.200005">
<defs>
<filter id="filter-remove-color" x="0%" y="0%" width="100%" height="100%">
<feColorMatrix color-interpolation-filters="sRGB" values="0 0 0 0 1 0 0 0 0 1 0 0 0 0 1 0 0 0 1 0" />
</filter>
<clipPath id="clip-0">
<path clip-rule="nonzero" d="M 0 0 L 189 0 L 189 124.199219 L 0 124.199219 Z M 0 0 "/>
</clipPath>
<mask id="mask-0">
<g filter="url(#filter-remove-color)">
<rect x="-18.9" y="-12.420001" width="226.8" height="149.040006" fill="rgb(0%, 0%, 0%)" fill-opacity="0.5"/>
</g>
</mask>
<clipPath id="clip-1">
<path clip-rule="nonzero" d="M 86 0 L 189 0 L 189 124.199219 L 86 124.199219 Z M 86 0 "/>
</clipPath>
<clipPath id="clip-2">
<rect x="0" y="0" width="189" height="125"/>
</clipPath>
<g id="source-5" clip-path="url(#clip-2)">
<g clip-path="url(#clip-1)">
<path fill-rule="nonzero" fill="rgb(84.70459%, 89.01825%, 90.194702%)" fill-opacity="1" d="M 86.304688 0 L 189 0 L 189 124.199219 L 86.304688 124.199219 Z M 86.304688 0 "/>
</g>
</g>
<mask id="mask-1">
<g filter="url(#filter-remove-color)">
<rect x="-18.9" y="-12.420001" width="226.8" height="149.040006" fill="rgb(0%, 0%, 0%)" fill-opacity="0.5"/>
</g>
</mask>
<clipPath id="clip-3">
<path clip-rule="nonzero" d="M 0 0 L 87 0 L 87 124.199219 L 0 124.199219 Z M 0 0 "/>
</clipPath>
<clipPath id="clip-4">
<rect x="0" y="0" width="189" height="125"/>
</clipPath>
<g id="source-8" clip-path="url(#clip-4)">
<g clip-path="url(#clip-3)">
<path fill-rule="nonzero" fill="rgb(99.606323%, 98.431396%, 95.684814%)" fill-opacity="1" d="M 0 0 L 86.0625 0 L 86.0625 124.199219 L 0 124.199219 Z M 0 0 "/>
</g>
</g>
<clipPath id="clip-5">
<path clip-rule="nonzero" d="M 85 0 L 87 0 L 87 124.199219 L 85 124.199219 Z M 85 0 "/>
</clipPath>
</defs>
<g clip-path="url(#clip-0)">
<g mask="url(#mask-0)">
<use xlink:href="#source-5"/>
</g>
<g mask="url(#mask-1)">
<use xlink:href="#source-8"/>
</g>
</g>
<g clip-path="url(#clip-5)">
<path fill="none" stroke-width="0.75" stroke-linecap="butt" stroke-linejoin="miter" stroke="rgb(0%, 0%, 0%)" stroke-opacity="1" stroke-miterlimit="10" d="M 86.0625 0 L 86.0625 124.199219 "/>
</g>
<path fill="none" stroke-width="0.75" stroke-linecap="butt" stroke-linejoin="miter" stroke="rgb(0%, 0%, 0%)" stroke-opacity="1" stroke-miterlimit="10" d="M 6.1875 72.375 L 8.4375 72.375 "/>
<path fill="none" stroke-width="0.75" stroke-linecap="butt" stroke-linejoin="miter" stroke="rgb(0%, 0%, 0%)" stroke-opacity="1" stroke-dasharray="4.44975 2.96655" stroke-miterlimit="10" d="M 11.40625 72.375 L 173.078125 72.375 "/>
<path fill="none" stroke-width="0.75" stroke-linecap="butt" stroke-linejoin="miter" stroke="rgb(0%, 0%, 0%)" stroke-opacity="1" stroke-miterlimit="10" d="M 174.5625 72.375 L 176.8125 72.375 "/>
<path fill-rule="nonzero" fill="rgb(0%, 0%, 0%)" fill-opacity="1" d="M 10.152344 10.351562 C 10.449219 10.867188 10.773438 11.246094 11.121094 11.492188 C 11.46875 11.734375 11.863281 11.875 12.304688 11.910156 L 12.304688 12.050781 C 11.898438 12.035156 11.46875 11.953125 11.007812 11.804688 C 10.546875 11.65625 10.113281 11.453125 9.699219 11.191406 C 9.289062 10.929688 8.933594 10.648438 8.632812 10.355469 C 8.214844 10.183594 7.878906 10.003906 7.632812 9.8125 C 7.273438 9.527344 6.996094 9.179688 6.800781 8.765625 C 6.601562 8.351562 6.503906 7.859375 6.503906 7.296875 C 6.503906 6.402344 6.792969 5.664062 7.367188 5.074219 C 7.945312 4.488281 8.644531 4.191406 9.464844 4.191406 C 10.246094 4.191406 10.917969 4.488281 11.488281 5.078125 C 12.058594 5.667969 12.34375 6.414062 12.34375 7.3125 C 12.34375 8.042969 12.140625 8.683594 11.734375 9.234375 C 11.328125 9.785156 10.800781 10.15625 10.152344 10.351562 Z M 9.414062 4.527344 C 8.878906 4.527344 8.449219 4.71875 8.125 5.101562 C 7.714844 5.578125 7.511719 6.308594 7.511719 7.292969 C 7.511719 8.257812 7.71875 9 8.132812 9.523438 C 8.457031 9.921875 8.882812 10.125 9.414062 10.125 C 9.964844 10.125 10.40625 9.921875 10.746094 9.523438 C 11.140625 9.046875 11.335938 8.347656 11.335938 7.421875 C 11.335938 6.710938 11.230469 6.109375 11.011719 5.625 C 10.84375 5.25 10.621094 4.972656 10.347656 4.796875 C 10.070312 4.621094 9.757812 4.527344 9.414062 4.527344 Z M 9.414062 4.527344 "/>
<path fill-rule="nonzero" fill="rgb(0%, 0%, 0%)" fill-opacity="1" d="M 179.972656 105.371094 L 179.972656 107.105469 C 179.972656 107.480469 180.011719 107.714844 180.09375 107.804688 C 180.203125 107.933594 180.375 108 180.597656 108 L 180.828125 108 L 180.828125 108.160156 L 178.273438 108.160156 L 178.273438 108 L 178.5 108 C 178.75 108 178.929688 107.917969 179.039062 107.753906 C 179.097656 107.660156 179.128906 107.445312 179.128906 107.105469 L 179.128906 103.257812 C 179.128906 102.882812 179.089844 102.648438 179.007812 102.558594 C 178.894531 102.429688 178.726562 102.363281 178.5 102.363281 L 178.273438 102.363281 L 178.273438 102.203125 L 180.460938 102.203125 C 180.992188 102.203125 181.414062 102.257812 181.71875 102.367188 C 182.027344 102.476562 182.289062 102.664062 182.5 102.921875 C 182.710938 103.183594 182.816406 103.492188 182.816406 103.847656 C 182.816406 104.335938 182.652344 104.730469 182.332031 105.035156 C 182.011719 105.339844 181.558594 105.492188 180.972656 105.492188 C 180.832031 105.492188 180.675781 105.480469 180.507812 105.460938 C 180.339844 105.441406 180.160156 105.410156 179.972656 105.371094 Z M 179.972656 105.121094 C 180.125 105.148438 180.265625 105.171875 180.382812 105.1875 C 180.503906 105.199219 180.605469 105.207031 180.691406 105.207031 C 180.996094 105.207031 181.257812 105.089844 181.480469 104.855469 C 181.703125 104.617188 181.8125 104.3125 181.8125 103.9375 C 181.8125 103.679688 181.757812 103.441406 181.652344 103.21875 C 181.546875 102.996094 181.398438 102.832031 181.207031 102.722656 C 181.011719 102.613281 180.792969 102.558594 180.546875 102.558594 C 180.398438 102.558594 180.203125 102.585938 179.96875 102.640625 L 179.96875 105.121094 Z M 179.972656 105.121094 "/>
<path fill-rule="nonzero" fill="rgb(0%, 0%, 0%)" fill-opacity="1" d="M 90.414062 3.21875 L 89.6875 5.785156 C 89.636719 5.957031 89.613281 6.0625 89.613281 6.097656 C 89.613281 6.136719 89.625 6.167969 89.648438 6.191406 C 89.671875 6.214844 89.699219 6.226562 89.730469 6.226562 C 89.765625 6.226562 89.8125 6.207031 89.863281 6.167969 C 90.003906 6.058594 90.140625 5.902344 90.285156 5.699219 L 90.414062 5.785156 C 90.246094 6.039062 90.050781 6.253906 89.828125 6.425781 C 89.660156 6.554688 89.503906 6.621094 89.351562 6.621094 C 89.25 6.621094 89.167969 6.589844 89.105469 6.53125 C 89.042969 6.46875 89.011719 6.394531 89.011719 6.304688 C 89.011719 6.214844 89.039062 6.0625 89.101562 5.855469 L 89.578125 4.210938 C 89.65625 3.945312 89.695312 3.777344 89.695312 3.707031 C 89.695312 3.652344 89.675781 3.609375 89.636719 3.574219 C 89.597656 3.539062 89.546875 3.523438 89.484375 3.523438 C 89.429688 3.523438 89.316406 3.539062 89.148438 3.566406 L 89.148438 3.421875 Z M 90.363281 1.761719 C 90.46875 1.761719 90.554688 1.796875 90.625 1.871094 C 90.695312 1.941406 90.730469 2.027344 90.730469 2.128906 C 90.730469 2.230469 90.695312 2.316406 90.625 2.386719 C 90.550781 2.460938 90.464844 2.496094 90.367188 2.496094 C 90.265625 2.496094 90.179688 2.460938 90.105469 2.386719 C 90.035156 2.316406 90 2.230469 90 2.128906 C 90 2.027344 90.035156 1.941406 90.105469 1.871094 C 90.175781 1.796875 90.261719 1.761719 90.363281 1.761719 Z M 90.363281 1.761719 "/>
<path fill-rule="nonzero" fill="rgb(0%, 0%, 0%)" fill-opacity="1" d="M 92.425781 3.21875 L 91.941406 4.882812 C 92.394531 4.203125 92.746094 3.753906 92.988281 3.539062 C 93.230469 3.324219 93.464844 3.21875 93.691406 3.21875 C 93.8125 3.21875 93.914062 3.257812 93.992188 3.339844 C 94.070312 3.417969 94.113281 3.523438 94.113281 3.652344 C 94.113281 3.800781 94.078125 3.996094 94.003906 4.238281 L 93.558594 5.78125 C 93.507812 5.960938 93.480469 6.066406 93.480469 6.105469 C 93.480469 6.140625 93.492188 6.171875 93.511719 6.195312 C 93.53125 6.214844 93.550781 6.226562 93.570312 6.226562 C 93.601562 6.226562 93.636719 6.210938 93.679688 6.179688 C 93.808594 6.078125 93.949219 5.921875 94.101562 5.710938 L 94.214844 5.78125 C 93.988281 6.105469 93.773438 6.339844 93.570312 6.476562 C 93.429688 6.574219 93.304688 6.621094 93.191406 6.621094 C 93.101562 6.621094 93.027344 6.59375 92.976562 6.539062 C 92.921875 6.484375 92.894531 6.410156 92.894531 6.316406 C 92.894531 6.199219 92.9375 5.996094 93.019531 5.710938 L 93.445312 4.238281 C 93.496094 4.058594 93.523438 3.914062 93.523438 3.8125 C 93.523438 3.761719 93.507812 3.722656 93.476562 3.691406 C 93.445312 3.660156 93.40625 3.648438 93.359375 3.648438 C 93.292969 3.648438 93.210938 3.675781 93.113281 3.734375 C 92.933594 3.84375 92.746094 4.023438 92.550781 4.277344 C 92.355469 4.53125 92.148438 4.855469 91.933594 5.246094 C 91.816406 5.453125 91.722656 5.683594 91.644531 5.929688 L 91.464844 6.53125 L 90.914062 6.53125 L 91.582031 4.238281 C 91.660156 3.964844 91.699219 3.796875 91.699219 3.742188 C 91.699219 3.6875 91.675781 3.640625 91.632812 3.601562 C 91.589844 3.558594 91.539062 3.539062 91.476562 3.539062 C 91.445312 3.539062 91.394531 3.542969 91.320312 3.554688 L 91.183594 3.578125 L 91.160156 3.445312 Z M 92.425781 3.21875 "/>
<path fill-rule="nonzero" fill="rgb(0%, 0%, 0%)" fill-opacity="1" d="M 96.46875 2.308594 L 96.183594 3.304688 L 96.757812 3.304688 L 96.695312 3.535156 L 96.125 3.535156 L 95.496094 5.695312 C 95.425781 5.929688 95.390625 6.078125 95.390625 6.148438 C 95.390625 6.1875 95.402344 6.222656 95.421875 6.242188 C 95.441406 6.265625 95.464844 6.277344 95.492188 6.277344 C 95.554688 6.277344 95.632812 6.234375 95.734375 6.148438 C 95.792969 6.097656 95.921875 5.949219 96.125 5.695312 L 96.246094 5.789062 C 96.019531 6.117188 95.808594 6.347656 95.609375 6.480469 C 95.472656 6.574219 95.332031 6.621094 95.195312 6.621094 C 95.085938 6.621094 95 6.585938 94.929688 6.519531 C 94.859375 6.453125 94.828125 6.367188 94.828125 6.261719 C 94.828125 6.128906 94.867188 5.929688 94.945312 5.65625 L 95.554688 3.535156 L 95.003906 3.535156 L 95.039062 3.394531 C 95.308594 3.320312 95.53125 3.210938 95.710938 3.066406 C 95.890625 2.921875 96.085938 2.667969 96.308594 2.3125 L 96.46875 2.3125 Z M 96.46875 2.308594 "/>
<path fill-rule="nonzero" fill="rgb(0%, 0%, 0%)" fill-opacity="1" d="M 97.5 5.152344 C 97.480469 5.273438 97.472656 5.375 97.472656 5.453125 C 97.472656 5.671875 97.550781 5.855469 97.703125 6.007812 C 97.859375 6.164062 98.042969 6.238281 98.265625 6.238281 C 98.441406 6.238281 98.609375 6.203125 98.773438 6.128906 C 98.933594 6.058594 99.175781 5.898438 99.496094 5.652344 L 99.570312 5.757812 C 98.992188 6.332031 98.441406 6.621094 97.917969 6.621094 C 97.5625 6.621094 97.292969 6.507812 97.113281 6.28125 C 96.929688 6.058594 96.839844 5.808594 96.839844 5.539062 C 96.839844 5.175781 96.953125 4.804688 97.175781 4.421875 C 97.402344 4.042969 97.683594 3.746094 98.023438 3.535156 C 98.363281 3.324219 98.710938 3.21875 99.070312 3.21875 C 99.328125 3.21875 99.519531 3.269531 99.644531 3.375 C 99.769531 3.480469 99.832031 3.605469 99.832031 3.75 C 99.832031 3.953125 99.753906 4.144531 99.589844 4.332031 C 99.378906 4.574219 99.066406 4.769531 98.652344 4.917969 C 98.378906 5.015625 97.992188 5.09375 97.5 5.152344 Z M 97.523438 4.972656 C 97.882812 4.929688 98.179688 4.859375 98.40625 4.757812 C 98.707031 4.625 98.933594 4.464844 99.082031 4.277344 C 99.234375 4.089844 99.308594 3.914062 99.308594 3.746094 C 99.308594 3.640625 99.273438 3.558594 99.210938 3.496094 C 99.144531 3.433594 99.054688 3.402344 98.933594 3.402344 C 98.683594 3.402344 98.421875 3.535156 98.140625 3.796875 C 97.863281 4.0625 97.65625 4.453125 97.523438 4.972656 Z M 97.523438 4.972656 "/>
<path fill-rule="nonzero" fill="rgb(0%, 0%, 0%)" fill-opacity="1" d="M 100.324219 3.421875 L 101.589844 3.21875 L 101.0625 4.996094 C 101.488281 4.265625 101.878906 3.757812 102.226562 3.464844 C 102.425781 3.300781 102.585938 3.21875 102.710938 3.21875 C 102.792969 3.21875 102.855469 3.242188 102.902344 3.289062 C 102.949219 3.335938 102.972656 3.40625 102.972656 3.496094 C 102.972656 3.65625 102.929688 3.8125 102.847656 3.957031 C 102.789062 4.066406 102.703125 4.121094 102.59375 4.121094 C 102.539062 4.121094 102.488281 4.105469 102.449219 4.066406 C 102.410156 4.03125 102.382812 3.972656 102.375 3.898438 C 102.367188 3.851562 102.359375 3.820312 102.339844 3.808594 C 102.324219 3.789062 102.296875 3.777344 102.273438 3.777344 C 102.230469 3.777344 102.191406 3.789062 102.15625 3.808594 C 102.089844 3.839844 101.992188 3.9375 101.863281 4.09375 C 101.664062 4.332031 101.445312 4.640625 101.207031 5.023438 C 101.101562 5.183594 101.015625 5.367188 100.941406 5.570312 C 100.839844 5.847656 100.78125 6.015625 100.765625 6.070312 L 100.648438 6.53125 L 100.089844 6.53125 L 100.765625 4.257812 C 100.84375 3.992188 100.882812 3.804688 100.882812 3.695312 C 100.882812 3.648438 100.867188 3.613281 100.828125 3.585938 C 100.78125 3.546875 100.714844 3.527344 100.632812 3.527344 C 100.582031 3.527344 100.488281 3.535156 100.351562 3.558594 Z M 100.324219 3.421875 "/>
<path fill-rule="nonzero" fill="rgb(0%, 0%, 0%)" fill-opacity="1" d="M 105.074219 3.304688 L 105.007812 3.546875 L 104.476562 3.546875 L 104.070312 5.148438 C 103.894531 5.851562 103.714844 6.398438 103.535156 6.785156 C 103.277344 7.328125 103.003906 7.703125 102.707031 7.914062 C 102.480469 8.070312 102.253906 8.148438 102.03125 8.148438 C 101.886719 8.148438 101.761719 8.105469 101.660156 8.019531 C 101.582031 7.957031 101.546875 7.878906 101.546875 7.78125 C 101.546875 7.703125 101.578125 7.636719 101.636719 7.578125 C 101.703125 7.519531 101.777344 7.492188 101.867188 7.492188 C 101.933594 7.492188 101.988281 7.511719 102.035156 7.554688 C 102.082031 7.59375 102.101562 7.640625 102.101562 7.695312 C 102.101562 7.75 102.078125 7.800781 102.027344 7.847656 C 101.984375 7.878906 101.96875 7.90625 101.96875 7.921875 C 101.96875 7.945312 101.976562 7.960938 101.992188 7.972656 C 102.015625 7.992188 102.046875 8 102.09375 8 C 102.199219 8 102.308594 7.964844 102.425781 7.902344 C 102.542969 7.835938 102.644531 7.734375 102.734375 7.605469 C 102.828125 7.476562 102.910156 7.285156 102.992188 7.039062 C 103.027344 6.9375 103.117188 6.601562 103.265625 6.027344 L 103.902344 3.546875 L 103.265625 3.546875 L 103.316406 3.304688 C 103.519531 3.304688 103.660156 3.289062 103.742188 3.261719 C 103.824219 3.234375 103.898438 3.179688 103.964844 3.101562 C 104.03125 3.023438 104.117188 2.875 104.226562 2.65625 C 104.371094 2.363281 104.507812 2.136719 104.640625 1.976562 C 104.820312 1.757812 105.011719 1.59375 105.210938 1.488281 C 105.410156 1.378906 105.597656 1.324219 105.773438 1.324219 C 105.957031 1.324219 106.105469 1.371094 106.21875 1.464844 C 106.332031 1.558594 106.386719 1.660156 106.386719 1.769531 C 106.386719 1.855469 106.359375 1.929688 106.304688 1.988281 C 106.246094 2.046875 106.175781 2.074219 106.085938 2.074219 C 106.011719 2.074219 105.949219 2.054688 105.902344 2.007812 C 105.855469 1.964844 105.832031 1.914062 105.832031 1.851562 C 105.832031 1.8125 105.847656 1.765625 105.878906 1.707031 C 105.910156 1.648438 105.925781 1.609375 105.925781 1.589844 C 105.925781 1.558594 105.914062 1.53125 105.890625 1.511719 C 105.859375 1.488281 105.816406 1.476562 105.753906 1.476562 C 105.597656 1.476562 105.460938 1.527344 105.339844 1.621094 C 105.175781 1.753906 105.027344 1.957031 104.898438 2.230469 C 104.832031 2.375 104.710938 2.734375 104.539062 3.304688 Z M 105.074219 3.304688 "/>
<path fill-rule="nonzero" fill="rgb(0%, 0%, 0%)" fill-opacity="1" d="M 108.457031 3.21875 L 107.742188 5.699219 L 107.660156 6.03125 C 107.652344 6.066406 107.648438 6.089844 107.648438 6.113281 C 107.648438 6.152344 107.660156 6.1875 107.6875 6.214844 C 107.707031 6.238281 107.730469 6.25 107.761719 6.25 C 107.792969 6.25 107.832031 6.230469 107.882812 6.191406 C 107.980469 6.121094 108.105469 5.972656 108.265625 5.75 L 108.390625 5.839844 C 108.222656 6.09375 108.046875 6.285156 107.871094 6.417969 C 107.691406 6.550781 107.527344 6.617188 107.375 6.617188 C 107.269531 6.617188 107.191406 6.59375 107.140625 6.539062 C 107.089844 6.488281 107.0625 6.410156 107.0625 6.3125 C 107.0625 6.191406 107.089844 6.035156 107.140625 5.839844 L 107.21875 5.5625 C 106.898438 5.980469 106.605469 6.273438 106.335938 6.441406 C 106.144531 6.558594 105.953125 6.617188 105.769531 6.617188 C 105.589844 6.617188 105.4375 6.542969 105.308594 6.398438 C 105.179688 6.25 105.113281 6.046875 105.113281 5.789062 C 105.113281 5.398438 105.230469 4.992188 105.460938 4.558594 C 105.695312 4.128906 105.992188 3.785156 106.351562 3.523438 C 106.632812 3.320312 106.898438 3.21875 107.148438 3.21875 C 107.296875 3.21875 107.417969 3.257812 107.519531 3.335938 C 107.617188 3.414062 107.691406 3.542969 107.742188 3.722656 L 107.875 3.304688 Z M 107.152344 3.40625 C 106.996094 3.40625 106.828125 3.480469 106.652344 3.628906 C 106.40625 3.835938 106.183594 4.140625 105.988281 4.550781 C 105.796875 4.957031 105.699219 5.324219 105.699219 5.65625 C 105.699219 5.820312 105.738281 5.953125 105.820312 6.050781 C 105.90625 6.144531 106 6.195312 106.109375 6.195312 C 106.375 6.195312 106.664062 5.996094 106.976562 5.605469 C 107.394531 5.082031 107.601562 4.546875 107.601562 3.996094 C 107.601562 3.789062 107.5625 3.640625 107.480469 3.546875 C 107.402344 3.453125 107.292969 3.40625 107.152344 3.40625 Z M 107.152344 3.40625 "/>
<path fill-rule="nonzero" fill="rgb(0%, 0%, 0%)" fill-opacity="1" d="M 111.582031 5.734375 C 111.328125 6.039062 111.074219 6.261719 110.8125 6.40625 C 110.554688 6.546875 110.28125 6.621094 109.992188 6.621094 C 109.644531 6.621094 109.378906 6.523438 109.183594 6.328125 C 108.988281 6.132812 108.890625 5.867188 108.890625 5.539062 C 108.890625 5.164062 108.996094 4.796875 109.203125 4.4375 C 109.414062 4.074219 109.695312 3.78125 110.046875 3.554688 C 110.398438 3.328125 110.746094 3.214844 111.085938 3.214844 C 111.351562 3.214844 111.550781 3.273438 111.683594 3.382812 C 111.8125 3.496094 111.878906 3.628906 111.878906 3.792969 C 111.878906 3.941406 111.832031 4.074219 111.742188 4.179688 C 111.671875 4.261719 111.585938 4.304688 111.488281 4.304688 C 111.410156 4.304688 111.347656 4.28125 111.296875 4.230469 C 111.25 4.183594 111.222656 4.121094 111.222656 4.046875 C 111.222656 4 111.234375 3.957031 111.25 3.917969 C 111.269531 3.878906 111.308594 3.832031 111.363281 3.777344 C 111.421875 3.722656 111.457031 3.683594 111.46875 3.660156 C 111.480469 3.632812 111.488281 3.609375 111.488281 3.582031 C 111.488281 3.53125 111.464844 3.488281 111.417969 3.453125 C 111.347656 3.40625 111.246094 3.378906 111.117188 3.378906 C 110.878906 3.378906 110.640625 3.464844 110.40625 3.632812 C 110.171875 3.800781 109.972656 4.039062 109.804688 4.351562 C 109.605469 4.726562 109.507812 5.101562 109.507812 5.480469 C 109.507812 5.726562 109.578125 5.925781 109.71875 6.070312 C 109.859375 6.214844 110.054688 6.289062 110.296875 6.289062 C 110.484375 6.289062 110.671875 6.242188 110.855469 6.148438 C 111.039062 6.054688 111.246094 5.882812 111.476562 5.636719 Z M 111.582031 5.734375 "/>
<path fill-rule="nonzero" fill="rgb(0%, 0%, 0%)" fill-opacity="1" d="M 112.910156 5.152344 C 112.890625 5.273438 112.882812 5.375 112.882812 5.453125 C 112.882812 5.671875 112.960938 5.855469 113.113281 6.007812 C 113.269531 6.164062 113.453125 6.238281 113.675781 6.238281 C 113.851562 6.238281 114.019531 6.203125 114.183594 6.128906 C 114.34375 6.058594 114.585938 5.898438 114.90625 5.652344 L 114.984375 5.757812 C 114.402344 6.332031 113.851562 6.621094 113.328125 6.621094 C 112.972656 6.621094 112.703125 6.507812 112.523438 6.28125 C 112.339844 6.058594 112.25 5.808594 112.25 5.539062 C 112.25 5.175781 112.363281 4.804688 112.585938 4.421875 C 112.8125 4.042969 113.09375 3.746094 113.433594 3.535156 C 113.773438 3.324219 114.121094 3.21875 114.480469 3.21875 C 114.738281 3.21875 114.929688 3.269531 115.054688 3.375 C 115.179688 3.480469 115.242188 3.605469 115.242188 3.75 C 115.242188 3.953125 115.164062 4.144531 115 4.332031 C 114.789062 4.574219 114.476562 4.769531 114.0625 4.917969 C 113.789062 5.015625 113.402344 5.09375 112.910156 5.152344 Z M 112.933594 4.972656 C 113.296875 4.929688 113.589844 4.859375 113.816406 4.757812 C 114.117188 4.625 114.34375 4.464844 114.492188 4.277344 C 114.644531 4.089844 114.71875 3.914062 114.71875 3.746094 C 114.71875 3.640625 114.683594 3.558594 114.621094 3.496094 C 114.554688 3.433594 114.464844 3.402344 114.34375 3.402344 C 114.09375 3.402344 113.832031 3.535156 113.550781 3.796875 C 113.273438 4.0625 113.066406 4.453125 112.933594 4.972656 Z M 112.933594 4.972656 "/>
<path fill-rule="nonzero" fill="rgb(0%, 0%, 0%)" fill-opacity="1" d="M 7.84375 65.96875 L 7.355469 67.632812 C 7.8125 66.953125 8.164062 66.503906 8.40625 66.289062 C 8.648438 66.074219 8.882812 65.96875 9.105469 65.96875 C 9.230469 65.96875 9.328125 66.007812 9.410156 66.085938 C 9.488281 66.167969 9.527344 66.273438 9.527344 66.402344 C 9.527344 66.550781 9.492188 66.742188 9.421875 66.988281 L 8.972656 68.53125 C 8.921875 68.707031 8.898438 68.816406 8.898438 68.855469 C 8.898438 68.890625 8.90625 68.917969 8.925781 68.941406 C 8.945312 68.964844 8.96875 68.976562 8.988281 68.976562 C 9.019531 68.976562 9.054688 68.960938 9.09375 68.929688 C 9.222656 68.828125 9.367188 68.671875 9.519531 68.460938 L 9.632812 68.53125 C 9.40625 68.855469 9.191406 69.085938 8.988281 69.226562 C 8.847656 69.324219 8.71875 69.371094 8.609375 69.371094 C 8.515625 69.371094 8.445312 69.34375 8.390625 69.289062 C 8.335938 69.234375 8.3125 69.160156 8.3125 69.066406 C 8.3125 68.949219 8.351562 68.746094 8.4375 68.460938 L 8.859375 66.988281 C 8.914062 66.804688 8.941406 66.664062 8.941406 66.5625 C 8.941406 66.511719 8.925781 66.472656 8.894531 66.441406 C 8.863281 66.410156 8.824219 66.394531 8.777344 66.394531 C 8.707031 66.394531 8.625 66.425781 8.53125 66.484375 C 8.351562 66.59375 8.164062 66.777344 7.96875 67.027344 C 7.773438 67.28125 7.566406 67.601562 7.347656 67.996094 C 7.234375 68.203125 7.136719 68.429688 7.0625 68.675781 L 6.878906 69.28125 L 6.328125 69.28125 L 6.996094 66.988281 C 7.074219 66.714844 7.113281 66.546875 7.113281 66.492188 C 7.113281 66.4375 7.09375 66.390625 7.050781 66.351562 C 7.007812 66.308594 6.953125 66.289062 6.890625 66.289062 C 6.863281 66.289062 6.8125 66.292969 6.738281 66.304688 L 6.597656 66.328125 L 6.574219 66.195312 Z M 7.84375 65.96875 "/>
<path fill-rule="nonzero" fill="rgb(0%, 0%, 0%)" fill-opacity="1" d="M 13.40625 67.113281 C 13.40625 67.480469 13.308594 67.84375 13.113281 68.199219 C 12.921875 68.558594 12.648438 68.84375 12.304688 69.054688 C 11.957031 69.265625 11.617188 69.367188 11.292969 69.367188 C 10.957031 69.367188 10.683594 69.261719 10.472656 69.046875 C 10.261719 68.835938 10.15625 68.558594 10.15625 68.21875 C 10.15625 67.859375 10.261719 67.5 10.46875 67.140625 C 10.671875 66.777344 10.949219 66.492188 11.296875 66.28125 C 11.640625 66.070312 11.972656 65.96875 12.296875 65.96875 C 12.617188 65.96875 12.882812 66.074219 13.09375 66.285156 C 13.300781 66.496094 13.40625 66.773438 13.40625 67.113281 Z M 12.796875 66.859375 C 12.796875 66.632812 12.742188 66.460938 12.628906 66.339844 C 12.519531 66.21875 12.375 66.15625 12.199219 66.15625 C 11.839844 66.15625 11.511719 66.414062 11.210938 66.929688 C 10.90625 67.441406 10.757812 67.953125 10.757812 68.460938 C 10.757812 68.691406 10.816406 68.871094 10.933594 68.996094 C 11.050781 69.121094 11.199219 69.1875 11.375 69.1875 C 11.71875 69.1875 12.042969 68.929688 12.34375 68.417969 C 12.648438 67.90625 12.796875 67.386719 12.796875 66.859375 Z M 12.796875 66.859375 "/>
<path fill-rule="nonzero" fill="rgb(0%, 0%, 0%)" fill-opacity="1" d="M 14.078125 66.171875 L 15.34375 65.96875 L 14.816406 67.746094 C 15.242188 67.015625 15.628906 66.507812 15.980469 66.214844 C 16.179688 66.050781 16.339844 65.96875 16.464844 65.96875 C 16.542969 65.96875 16.609375 65.992188 16.65625 66.039062 C 16.699219 66.085938 16.722656 66.15625 16.722656 66.246094 C 16.722656 66.40625 16.683594 66.558594 16.601562 66.707031 C 16.542969 66.816406 16.457031 66.871094 16.347656 66.871094 C 16.289062 66.871094 16.242188 66.851562 16.203125 66.816406 C 16.160156 66.78125 16.136719 66.722656 16.128906 66.648438 C 16.121094 66.601562 16.113281 66.570312 16.09375 66.554688 C 16.074219 66.539062 16.050781 66.527344 16.023438 66.527344 C 15.984375 66.527344 15.945312 66.539062 15.90625 66.554688 C 15.84375 66.589844 15.746094 66.683594 15.617188 66.84375 C 15.414062 67.082031 15.195312 67.390625 14.957031 67.773438 C 14.855469 67.933594 14.769531 68.113281 14.695312 68.316406 C 14.59375 68.597656 14.535156 68.765625 14.519531 68.820312 L 14.402344 69.28125 L 13.84375 69.28125 L 14.519531 67.007812 C 14.597656 66.742188 14.636719 66.554688 14.636719 66.441406 C 14.636719 66.398438 14.617188 66.363281 14.582031 66.332031 C 14.53125 66.292969 14.46875 66.273438 14.386719 66.273438 C 14.335938 66.273438 14.242188 66.285156 14.105469 66.308594 Z M 14.078125 66.171875 "/>
<path fill-rule="nonzero" fill="rgb(0%, 0%, 0%)" fill-opacity="1" d="M 18.234375 65.96875 L 17.757812 67.617188 C 17.96875 67.230469 18.148438 66.9375 18.296875 66.742188 C 18.53125 66.441406 18.757812 66.222656 18.976562 66.085938 C 19.105469 66.007812 19.242188 65.96875 19.382812 65.96875 C 19.503906 65.96875 19.605469 66.007812 19.6875 66.085938 C 19.765625 66.160156 19.808594 66.261719 19.808594 66.382812 C 19.808594 66.503906 19.777344 66.660156 19.722656 66.851562 L 19.460938 67.78125 C 19.859375 67.039062 20.238281 66.515625 20.59375 66.214844 C 20.792969 66.046875 20.988281 65.964844 21.179688 65.964844 C 21.292969 65.964844 21.382812 66.003906 21.457031 66.082031 C 21.527344 66.160156 21.566406 66.277344 21.566406 66.4375 C 21.566406 66.582031 21.542969 66.730469 21.5 66.890625 L 21.097656 68.3125 C 21.007812 68.625 20.964844 68.796875 20.964844 68.828125 C 20.964844 68.863281 20.976562 68.894531 20.996094 68.917969 C 21.011719 68.933594 21.03125 68.941406 21.054688 68.941406 C 21.082031 68.941406 21.121094 68.917969 21.183594 68.875 C 21.324219 68.765625 21.453125 68.625 21.574219 68.449219 L 21.695312 68.527344 C 21.632812 68.625 21.527344 68.757812 21.371094 68.929688 C 21.21875 69.101562 21.085938 69.214844 20.972656 69.277344 C 20.863281 69.335938 20.761719 69.367188 20.671875 69.367188 C 20.585938 69.367188 20.515625 69.339844 20.457031 69.28125 C 20.398438 69.222656 20.371094 69.148438 20.371094 69.066406 C 20.371094 68.949219 20.421875 68.710938 20.519531 68.359375 L 20.851562 67.183594 C 20.929688 66.910156 20.96875 66.761719 20.972656 66.730469 C 20.980469 66.683594 20.984375 66.640625 20.984375 66.597656 C 20.984375 66.535156 20.972656 66.488281 20.945312 66.453125 C 20.914062 66.421875 20.882812 66.402344 20.84375 66.402344 C 20.742188 66.402344 20.632812 66.457031 20.519531 66.558594 C 20.183594 66.871094 19.867188 67.304688 19.574219 67.863281 C 19.382812 68.230469 19.199219 68.707031 19.03125 69.28125 L 18.480469 69.28125 L 19.105469 67.066406 C 19.171875 66.828125 19.207031 66.667969 19.207031 66.585938 C 19.207031 66.519531 19.195312 66.472656 19.167969 66.441406 C 19.140625 66.40625 19.109375 66.390625 19.070312 66.390625 C 18.988281 66.390625 18.902344 66.421875 18.8125 66.480469 C 18.664062 66.574219 18.476562 66.777344 18.246094 67.089844 C 18.015625 67.402344 17.835938 67.703125 17.710938 67.988281 C 17.648438 68.121094 17.503906 68.554688 17.273438 69.28125 L 16.734375 69.28125 L 17.410156 66.910156 L 17.496094 66.601562 C 17.515625 66.554688 17.523438 66.519531 17.523438 66.496094 C 17.523438 66.445312 17.5 66.394531 17.449219 66.351562 C 17.402344 66.308594 17.339844 66.289062 17.261719 66.289062 C 17.230469 66.289062 17.144531 66.304688 17 66.332031 L 16.964844 66.199219 Z M 18.234375 65.96875 "/>
<path fill-rule="nonzero" fill="rgb(0%, 0%, 0%)" fill-opacity="1" d="M 25.542969 65.96875 L 24.828125 68.449219 L 24.746094 68.785156 C 24.742188 68.816406 24.738281 68.839844 24.738281 68.863281 C 24.738281 68.902344 24.75 68.9375 24.773438 68.964844 C 24.792969 68.988281 24.816406 69 24.847656 69 C 24.878906 69 24.921875 68.980469 24.972656 68.941406 C 25.066406 68.871094 25.191406 68.722656 25.351562 68.5 L 25.476562 68.589844 C 25.308594 68.84375 25.132812 69.035156 24.957031 69.167969 C 24.777344 69.300781 24.613281 69.367188 24.460938 69.367188 C 24.359375 69.367188 24.277344 69.34375 24.226562 69.289062 C 24.175781 69.238281 24.148438 69.160156 24.148438 69.0625 C 24.148438 68.941406 24.175781 68.785156 24.226562 68.589844 L 24.304688 68.316406 C 23.984375 68.730469 23.691406 69.023438 23.421875 69.191406 C 23.230469 69.308594 23.039062 69.367188 22.855469 69.367188 C 22.675781 69.367188 22.523438 69.292969 22.394531 69.148438 C 22.265625 69 22.199219 68.796875 22.199219 68.539062 C 22.199219 68.148438 22.316406 67.742188 22.546875 67.308594 C 22.78125 66.878906 23.078125 66.535156 23.4375 66.273438 C 23.71875 66.070312 23.984375 65.96875 24.230469 65.96875 C 24.382812 65.96875 24.503906 66.007812 24.605469 66.085938 C 24.703125 66.160156 24.777344 66.289062 24.828125 66.472656 L 24.960938 66.054688 Z M 24.238281 66.15625 C 24.082031 66.15625 23.914062 66.230469 23.738281 66.378906 C 23.492188 66.585938 23.269531 66.890625 23.074219 67.300781 C 22.882812 67.707031 22.785156 68.074219 22.785156 68.40625 C 22.785156 68.574219 22.824219 68.703125 22.910156 68.800781 C 22.992188 68.894531 23.085938 68.945312 23.195312 68.945312 C 23.460938 68.945312 23.75 68.746094 24.0625 68.355469 C 24.480469 67.832031 24.6875 67.296875 24.6875 66.746094 C 24.6875 66.539062 24.648438 66.386719 24.566406 66.296875 C 24.488281 66.203125 24.378906 66.15625 24.238281 66.15625 Z M 24.238281 66.15625 "/>
<path fill-rule="nonzero" fill="rgb(0%, 0%, 0%)" fill-opacity="1" d="M 28.003906 64.074219 L 26.75 68.433594 C 26.6875 68.648438 26.660156 68.78125 26.660156 68.832031 C 26.660156 68.867188 26.671875 68.898438 26.691406 68.921875 C 26.714844 68.949219 26.746094 68.960938 26.78125 68.960938 C 26.824219 68.960938 26.875 68.9375 26.929688 68.898438 C 27.054688 68.796875 27.191406 68.640625 27.328125 68.433594 L 27.4375 68.546875 C 27.207031 68.875 26.992188 69.101562 26.796875 69.230469 C 26.652344 69.324219 26.515625 69.371094 26.386719 69.371094 C 26.292969 69.371094 26.21875 69.335938 26.15625 69.273438 C 26.09375 69.210938 26.0625 69.136719 26.0625 69.054688 C 26.0625 68.96875 26.101562 68.785156 26.179688 68.511719 L 27.171875 65.078125 C 27.25 64.796875 27.289062 64.636719 27.289062 64.59375 C 27.289062 64.535156 27.269531 64.488281 27.222656 64.449219 C 27.175781 64.410156 27.101562 64.394531 27.003906 64.394531 C 26.949219 64.394531 26.863281 64.402344 26.75 64.417969 L 26.75 64.28125 Z M 28.003906 64.074219 "/>
<path fill-rule="nonzero" fill="rgb(0%, 0%, 0%)" fill-opacity="1" d="M 81.855469 73.753906 C 82.628906 73.753906 83.296875 74.046875 83.863281 74.632812 C 84.433594 75.222656 84.714844 75.957031 84.714844 76.835938 C 84.714844 77.738281 84.429688 78.492188 83.859375 79.089844 C 83.285156 79.6875 82.59375 79.984375 81.785156 79.984375 C 80.964844 79.984375 80.273438 79.695312 79.714844 79.109375 C 79.15625 78.527344 78.878906 77.773438 78.878906 76.847656 C 78.878906 75.902344 79.203125 75.128906 79.847656 74.53125 C 80.40625 74.011719 81.074219 73.753906 81.855469 73.753906 Z M 81.769531 74.074219 C 81.238281 74.074219 80.808594 74.273438 80.488281 74.667969 C 80.085938 75.160156 79.882812 75.878906 79.882812 76.828125 C 79.882812 77.804688 80.09375 78.550781 80.507812 79.074219 C 80.828125 79.472656 81.25 79.671875 81.773438 79.671875 C 82.335938 79.671875 82.796875 79.453125 83.160156 79.019531 C 83.527344 78.582031 83.707031 77.894531 83.707031 76.953125 C 83.707031 75.933594 83.507812 75.171875 83.105469 74.671875 C 82.785156 74.273438 82.339844 74.074219 81.769531 74.074219 Z M 81.769531 74.074219 "/>
<path fill-rule="nonzero" fill="rgb(0%, 0%, 0%)" fill-opacity="1" d="M 63.296875 20.605469 L 62.714844 22.601562 C 63.261719 21.785156 63.683594 21.25 63.972656 20.992188 C 64.265625 20.734375 64.546875 20.605469 64.816406 20.605469 C 64.960938 20.605469 65.082031 20.652344 65.175781 20.75 C 65.273438 20.84375 65.320312 20.972656 65.320312 21.125 C 65.320312 21.300781 65.277344 21.535156 65.191406 21.832031 L 64.65625 23.679688 C 64.59375 23.894531 64.5625 24.023438 64.5625 24.070312 C 64.5625 24.113281 64.574219 24.148438 64.597656 24.175781 C 64.621094 24.203125 64.648438 24.214844 64.675781 24.214844 C 64.710938 24.214844 64.753906 24.199219 64.800781 24.160156 C 64.957031 24.035156 65.128906 23.847656 65.3125 23.597656 L 65.449219 23.679688 C 65.175781 24.070312 64.917969 24.347656 64.675781 24.515625 C 64.503906 24.628906 64.351562 24.6875 64.21875 24.6875 C 64.109375 24.6875 64.023438 24.652344 63.957031 24.589844 C 63.894531 24.523438 63.863281 24.433594 63.863281 24.324219 C 63.863281 24.179688 63.910156 23.941406 64.011719 23.597656 L 64.519531 21.832031 C 64.585938 21.609375 64.617188 21.441406 64.617188 21.316406 C 64.617188 21.257812 64.597656 21.210938 64.5625 21.175781 C 64.523438 21.136719 64.476562 21.121094 64.417969 21.121094 C 64.339844 21.121094 64.238281 21.15625 64.125 21.226562 C 63.910156 21.355469 63.683594 21.574219 63.449219 21.878906 C 63.214844 22.179688 62.964844 22.566406 62.707031 23.039062 C 62.566406 23.289062 62.453125 23.5625 62.363281 23.859375 L 62.144531 24.582031 L 61.484375 24.582031 L 62.285156 21.832031 C 62.378906 21.5 62.425781 21.300781 62.425781 21.234375 C 62.425781 21.167969 62.398438 21.113281 62.347656 21.066406 C 62.296875 21.015625 62.234375 20.992188 62.15625 20.992188 C 62.121094 20.992188 62.058594 20.996094 61.972656 21.007812 L 61.804688 21.035156 L 61.777344 20.878906 Z M 63.296875 20.605469 "/>
<path fill-rule="nonzero" fill="rgb(0%, 0%, 0%)" fill-opacity="1" d="M 66.425781 24.445312 L 67.273438 24.03125 L 67.359375 24.03125 L 67.359375 26.964844 C 67.359375 27.160156 67.367188 27.28125 67.382812 27.328125 C 67.398438 27.378906 67.429688 27.414062 67.484375 27.441406 C 67.535156 27.464844 67.640625 27.480469 67.796875 27.484375 L 67.796875 27.578125 L 66.488281 27.578125 L 66.488281 27.484375 C 66.652344 27.480469 66.757812 27.464844 66.804688 27.441406 C 66.855469 27.417969 66.886719 27.382812 66.90625 27.339844 C 66.925781 27.300781 66.933594 27.175781 66.933594 26.964844 L 66.933594 25.089844 C 66.933594 24.839844 66.925781 24.675781 66.910156 24.605469 C 66.898438 24.550781 66.875 24.511719 66.84375 24.484375 C 66.8125 24.457031 66.773438 24.445312 66.730469 24.445312 C 66.667969 24.445312 66.578125 24.472656 66.464844 24.523438 Z M 66.425781 24.445312 "/>
<path fill-rule="nonzero" fill="rgb(0%, 0%, 0%)" fill-opacity="1" d="M 112.234375 20.605469 L 111.652344 22.601562 C 112.199219 21.785156 112.621094 21.25 112.910156 20.992188 C 113.203125 20.734375 113.484375 20.605469 113.753906 20.605469 C 113.898438 20.605469 114.019531 20.652344 114.113281 20.75 C 114.210938 20.84375 114.257812 20.972656 114.257812 21.125 C 114.257812 21.300781 114.214844 21.535156 114.128906 21.832031 L 113.59375 23.679688 C 113.53125 23.894531 113.5 24.023438 113.5 24.070312 C 113.5 24.113281 113.511719 24.148438 113.535156 24.175781 C 113.558594 24.203125 113.585938 24.214844 113.613281 24.214844 C 113.648438 24.214844 113.691406 24.199219 113.738281 24.160156 C 113.894531 24.035156 114.066406 23.847656 114.25 23.597656 L 114.386719 23.679688 C 114.113281 24.070312 113.855469 24.347656 113.613281 24.515625 C 113.441406 24.628906 113.289062 24.6875 113.15625 24.6875 C 113.046875 24.6875 112.960938 24.652344 112.894531 24.589844 C 112.832031 24.523438 112.800781 24.433594 112.800781 24.324219 C 112.800781 24.179688 112.847656 23.941406 112.949219 23.597656 L 113.457031 21.832031 C 113.523438 21.609375 113.554688 21.441406 113.554688 21.316406 C 113.554688 21.257812 113.535156 21.210938 113.5 21.175781 C 113.460938 21.136719 113.414062 21.121094 113.355469 21.121094 C 113.277344 21.121094 113.175781 21.15625 113.0625 21.226562 C 112.847656 21.355469 112.621094 21.574219 112.386719 21.878906 C 112.152344 22.179688 111.902344 22.566406 111.644531 23.039062 C 111.503906 23.289062 111.390625 23.5625 111.300781 23.859375 L 111.082031 24.582031 L 110.421875 24.582031 L 111.222656 21.832031 C 111.316406 21.5 111.363281 21.300781 111.363281 21.234375 C 111.363281 21.167969 111.335938 21.113281 111.285156 21.066406 C 111.234375 21.015625 111.171875 20.992188 111.09375 20.992188 C 111.058594 20.992188 110.996094 20.996094 110.910156 21.007812 L 110.742188 21.035156 L 110.714844 20.878906 Z M 112.234375 20.605469 "/>
<path fill-rule="nonzero" fill="rgb(0%, 0%, 0%)" fill-opacity="1" d="M 117.15625 26.910156 L 116.914062 27.578125 L 114.863281 27.578125 L 114.863281 27.484375 C 115.464844 26.933594 115.890625 26.484375 116.136719 26.136719 C 116.382812 25.789062 116.503906 25.46875 116.503906 25.179688 C 116.503906 24.960938 116.4375 24.777344 116.300781 24.636719 C 116.167969 24.496094 116.003906 24.425781 115.816406 24.425781 C 115.648438 24.425781 115.492188 24.472656 115.359375 24.574219 C 115.222656 24.675781 115.121094 24.820312 115.058594 25.015625 L 114.964844 25.015625 C 115.003906 24.699219 115.117188 24.457031 115.292969 24.285156 C 115.46875 24.117188 115.6875 24.03125 115.953125 24.03125 C 116.238281 24.03125 116.472656 24.125 116.660156 24.304688 C 116.847656 24.484375 116.941406 24.699219 116.941406 24.945312 C 116.941406 25.121094 116.902344 25.296875 116.820312 25.472656 C 116.695312 25.75 116.488281 26.042969 116.207031 26.351562 C 115.78125 26.816406 115.515625 27.097656 115.410156 27.191406 L 116.316406 27.191406 C 116.5 27.191406 116.628906 27.1875 116.703125 27.171875 C 116.777344 27.160156 116.84375 27.132812 116.90625 27.089844 C 116.964844 27.046875 117.015625 26.988281 117.0625 26.910156 Z M 117.15625 26.910156 "/>
<path fill-rule="nonzero" fill="rgb(0%, 0%, 0%)" fill-opacity="1" d="M 96.058594 40.855469 C 96.203125 41.007812 96.3125 41.160156 96.386719 41.3125 C 96.4375 41.417969 96.523438 41.691406 96.644531 42.140625 L 97.03125 41.5625 C 97.132812 41.421875 97.257812 41.285156 97.40625 41.160156 C 97.550781 41.03125 97.679688 40.945312 97.792969 40.898438 C 97.863281 40.867188 97.941406 40.851562 98.027344 40.851562 C 98.152344 40.851562 98.253906 40.886719 98.328125 40.953125 C 98.402344 41.023438 98.4375 41.105469 98.4375 41.199219 C 98.4375 41.3125 98.417969 41.386719 98.371094 41.429688 C 98.289062 41.503906 98.195312 41.539062 98.089844 41.539062 C 98.03125 41.539062 97.964844 41.523438 97.894531 41.5 C 97.753906 41.453125 97.664062 41.429688 97.617188 41.429688 C 97.546875 41.429688 97.460938 41.46875 97.367188 41.550781 C 97.183594 41.703125 96.96875 42 96.714844 42.433594 L 97.074219 43.945312 C 97.132812 44.179688 97.179688 44.316406 97.214844 44.363281 C 97.253906 44.410156 97.292969 44.429688 97.332031 44.429688 C 97.390625 44.429688 97.464844 44.398438 97.546875 44.328125 C 97.707031 44.195312 97.84375 44.019531 97.960938 43.800781 L 98.113281 43.882812 C 97.929688 44.226562 97.695312 44.515625 97.410156 44.742188 C 97.246094 44.871094 97.113281 44.933594 97 44.933594 C 96.835938 44.933594 96.707031 44.84375 96.609375 44.660156 C 96.546875 44.542969 96.421875 44.050781 96.226562 43.183594 C 95.769531 43.976562 95.402344 44.488281 95.128906 44.714844 C 94.949219 44.863281 94.777344 44.933594 94.609375 44.933594 C 94.492188 44.933594 94.386719 44.894531 94.289062 44.808594 C 94.21875 44.742188 94.183594 44.65625 94.183594 44.546875 C 94.183594 44.453125 94.214844 44.371094 94.28125 44.308594 C 94.34375 44.242188 94.421875 44.210938 94.515625 44.210938 C 94.609375 44.210938 94.710938 44.257812 94.816406 44.351562 C 94.890625 44.417969 94.949219 44.453125 94.992188 44.453125 C 95.027344 44.453125 95.070312 44.429688 95.128906 44.382812 C 95.265625 44.269531 95.453125 44.03125 95.691406 43.660156 C 95.925781 43.292969 96.082031 43.023438 96.15625 42.863281 C 95.972656 42.148438 95.875 41.773438 95.859375 41.730469 C 95.792969 41.542969 95.707031 41.40625 95.597656 41.328125 C 95.488281 41.25 95.328125 41.210938 95.117188 41.210938 C 95.050781 41.210938 94.972656 41.210938 94.882812 41.21875 L 94.882812 41.058594 Z M 96.058594 40.855469 "/>
<path fill-rule="nonzero" fill="rgb(0%, 0%, 0%)" fill-opacity="1" d="M 183.800781 50.957031 L 182.296875 56.1875 C 182.222656 56.449219 182.1875 56.609375 182.1875 56.667969 C 182.1875 56.710938 182.203125 56.746094 182.230469 56.777344 C 182.257812 56.804688 182.292969 56.820312 182.335938 56.820312 C 182.390625 56.820312 182.449219 56.796875 182.515625 56.746094 C 182.667969 56.625 182.824219 56.4375 182.992188 56.1875 L 183.125 56.324219 C 182.847656 56.714844 182.589844 56.992188 182.355469 57.144531 C 182.183594 57.257812 182.019531 57.3125 181.863281 57.3125 C 181.753906 57.3125 181.660156 57.273438 181.585938 57.199219 C 181.511719 57.121094 181.472656 57.035156 181.472656 56.933594 C 181.472656 56.828125 181.519531 56.613281 181.613281 56.285156 L 182.804688 52.164062 C 182.902344 51.824219 182.949219 51.632812 182.949219 51.582031 C 182.949219 51.511719 182.921875 51.453125 182.867188 51.410156 C 182.8125 51.363281 182.726562 51.339844 182.609375 51.339844 C 182.539062 51.339844 182.4375 51.351562 182.300781 51.371094 L 182.300781 51.210938 Z M 183.800781 50.957031 "/>
<path fill-rule="nonzero" fill="rgb(0%, 0%, 0%)" fill-opacity="1" d="M 51.847656 113.792969 L 50.992188 116.773438 L 50.894531 117.171875 C 50.886719 117.210938 50.878906 117.242188 50.878906 117.269531 C 50.878906 117.316406 50.894531 117.355469 50.925781 117.390625 C 50.949219 117.417969 50.976562 117.429688 51.011719 117.429688 C 51.050781 117.429688 51.101562 117.40625 51.160156 117.359375 C 51.277344 117.277344 51.429688 117.101562 51.617188 116.832031 L 51.769531 116.9375 C 51.566406 117.242188 51.359375 117.476562 51.144531 117.636719 C 50.929688 117.796875 50.730469 117.875 50.550781 117.875 C 50.425781 117.875 50.332031 117.84375 50.265625 117.78125 C 50.203125 117.71875 50.171875 117.625 50.171875 117.507812 C 50.171875 117.363281 50.203125 117.175781 50.269531 116.9375 L 50.363281 116.609375 C 49.976562 117.109375 49.625 117.460938 49.304688 117.660156 C 49.070312 117.804688 48.84375 117.875 48.621094 117.875 C 48.40625 117.875 48.222656 117.785156 48.066406 117.609375 C 47.914062 117.433594 47.835938 117.1875 47.835938 116.878906 C 47.835938 116.410156 47.976562 115.921875 48.253906 115.402344 C 48.535156 114.886719 48.890625 114.472656 49.320312 114.160156 C 49.65625 113.914062 49.976562 113.792969 50.273438 113.792969 C 50.453125 113.792969 50.601562 113.839844 50.71875 113.933594 C 50.839844 114.027344 50.929688 114.183594 50.992188 114.398438 L 51.148438 113.898438 Z M 50.285156 114.019531 C 50.097656 114.019531 49.898438 114.109375 49.6875 114.285156 C 49.386719 114.535156 49.121094 114.902344 48.890625 115.390625 C 48.65625 115.882812 48.539062 116.324219 48.539062 116.71875 C 48.539062 116.917969 48.589844 117.074219 48.6875 117.191406 C 48.789062 117.308594 48.902344 117.367188 49.03125 117.367188 C 49.351562 117.367188 49.699219 117.128906 50.074219 116.65625 C 50.574219 116.03125 50.824219 115.386719 50.824219 114.730469 C 50.824219 114.480469 50.777344 114.300781 50.679688 114.1875 C 50.582031 114.078125 50.449219 114.019531 50.285156 114.019531 Z M 50.285156 114.019531 "/>
<path fill-rule="nonzero" fill="rgb(0%, 0%, 0%)" fill-opacity="1" d="M 131.410156 111.519531 L 130.542969 114.554688 C 130.824219 114.261719 131.070312 114.0625 131.28125 113.953125 C 131.488281 113.84375 131.707031 113.792969 131.9375 113.792969 C 132.257812 113.792969 132.523438 113.898438 132.726562 114.113281 C 132.933594 114.328125 133.035156 114.617188 133.035156 114.984375 C 133.035156 115.453125 132.902344 115.921875 132.632812 116.390625 C 132.363281 116.859375 132.023438 117.222656 131.617188 117.484375 C 131.207031 117.742188 130.808594 117.875 130.414062 117.875 C 129.96875 117.875 129.515625 117.707031 129.050781 117.378906 L 130.386719 112.777344 C 130.488281 112.421875 130.539062 112.214844 130.539062 112.152344 C 130.539062 112.074219 130.515625 112.019531 130.46875 111.980469 C 130.402344 111.929688 130.300781 111.902344 130.171875 111.902344 C 130.109375 111.902344 130.015625 111.910156 129.890625 111.933594 L 129.890625 111.765625 Z M 129.707031 117.425781 C 130.003906 117.585938 130.257812 117.667969 130.480469 117.667969 C 130.738281 117.667969 131.007812 117.570312 131.285156 117.382812 C 131.558594 117.195312 131.800781 116.875 132.003906 116.429688 C 132.207031 115.980469 132.308594 115.527344 132.308594 115.070312 C 132.308594 114.800781 132.242188 114.589844 132.109375 114.4375 C 131.976562 114.285156 131.820312 114.207031 131.636719 114.207031 C 131.363281 114.207031 131.097656 114.316406 130.835938 114.535156 C 130.578125 114.753906 130.390625 115.058594 130.28125 115.449219 Z M 129.707031 117.425781 "/>
<path fill="none" stroke-width="0.375" stroke-linecap="butt" stroke-linejoin="miter" stroke="rgb(0%, 0%, 0%)" stroke-opacity="1" stroke-miterlimit="10" d="M 128.179688 86.027344 C 129.628906 81.734375 130.4375 77.144531 130.496094 72.375 "/>
<path fill="none" stroke-width="0.375" stroke-linecap="butt" stroke-linejoin="miter" stroke="rgb(0%, 0%, 0%)" stroke-opacity="1" stroke-miterlimit="10" d="M 52.703125 42.457031 C 45.808594 50.285156 41.625 60.5625 41.625 71.8125 C 41.625 72 41.625 72.1875 41.628906 72.375 "/>
<path fill-rule="nonzero" fill="rgb(0%, 0%, 0%)" fill-opacity="1" d="M 135.042969 76.480469 C 135.535156 76.480469 135.953125 76.769531 136.292969 77.347656 C 136.632812 77.925781 136.804688 78.679688 136.804688 79.609375 C 136.804688 80.609375 136.621094 81.402344 136.253906 81.976562 C 135.890625 82.554688 135.464844 82.84375 134.984375 82.84375 C 134.511719 82.84375 134.097656 82.5625 133.738281 82 C 133.378906 81.441406 133.199219 80.679688 133.199219 79.71875 C 133.199219 78.753906 133.378906 77.972656 133.734375 77.375 C 134.089844 76.777344 134.523438 76.480469 135.042969 76.480469 Z M 135.984375 79.511719 C 135.984375 77.660156 135.660156 76.734375 135.007812 76.734375 C 134.339844 76.734375 134.007812 77.660156 134.007812 79.511719 Z M 134.007812 79.785156 C 134.007812 80.742188 134.097656 81.449219 134.277344 81.90625 C 134.453125 82.359375 134.695312 82.585938 134.996094 82.585938 C 135.648438 82.585938 135.980469 81.652344 135.984375 79.785156 Z M 134.007812 79.785156 "/>
<path fill-rule="nonzero" fill="rgb(0%, 0%, 0%)" fill-opacity="1" d="M 139.558594 85.046875 L 139.316406 85.714844 L 137.269531 85.714844 L 137.269531 85.621094 C 137.871094 85.074219 138.292969 84.621094 138.539062 84.273438 C 138.785156 83.925781 138.910156 83.605469 138.910156 83.320312 C 138.910156 83.097656 138.84375 82.917969 138.707031 82.773438 C 138.570312 82.632812 138.410156 82.5625 138.222656 82.5625 C 138.050781 82.5625 137.898438 82.613281 137.765625 82.710938 C 137.628906 82.8125 137.527344 82.960938 137.464844 83.152344 L 137.367188 83.152344 C 137.410156 82.835938 137.519531 82.59375 137.695312 82.425781 C 137.875 82.253906 138.09375 82.171875 138.359375 82.171875 C 138.640625 82.171875 138.875 82.261719 139.066406 82.441406 C 139.253906 82.621094 139.347656 82.835938 139.347656 83.082031 C 139.347656 83.257812 139.304688 83.433594 139.226562 83.609375 C 139.097656 83.886719 138.894531 84.179688 138.609375 84.488281 C 138.183594 84.953125 137.917969 85.234375 137.8125 85.328125 L 138.722656 85.328125 C 138.90625 85.328125 139.035156 85.320312 139.109375 85.308594 C 139.183594 85.296875 139.25 85.269531 139.3125 85.226562 C 139.371094 85.183594 139.421875 85.125 139.46875 85.046875 Z M 139.558594 85.046875 "/>
<path fill-rule="nonzero" fill="rgb(0%, 0%, 0%)" fill-opacity="1" d="M 36.980469 47.058594 C 37.472656 47.058594 37.890625 47.347656 38.230469 47.925781 C 38.570312 48.503906 38.742188 49.257812 38.742188 50.1875 C 38.742188 51.191406 38.558594 51.980469 38.191406 52.558594 C 37.828125 53.132812 37.402344 53.421875 36.921875 53.421875 C 36.449219 53.421875 36.035156 53.140625 35.675781 52.582031 C 35.316406 52.019531 35.136719 51.257812 35.136719 50.296875 C 35.136719 49.335938 35.316406 48.554688 35.671875 47.957031 C 36.027344 47.359375 36.460938 47.058594 36.980469 47.058594 Z M 37.921875 50.089844 C 37.921875 48.238281 37.597656 47.316406 36.945312 47.316406 C 36.277344 47.316406 35.945312 48.238281 35.945312 50.089844 Z M 35.945312 50.363281 C 35.945312 51.320312 36.035156 52.027344 36.214844 52.484375 C 36.390625 52.941406 36.632812 53.167969 36.933594 53.167969 C 37.585938 53.167969 37.917969 52.234375 37.921875 50.363281 Z M 35.945312 50.363281 "/>
<path fill-rule="nonzero" fill="rgb(0%, 0%, 0%)" fill-opacity="1" d="M 39.707031 53.164062 L 40.550781 52.75 L 40.636719 52.75 L 40.636719 55.683594 C 40.636719 55.878906 40.644531 56 40.660156 56.046875 C 40.675781 56.097656 40.710938 56.132812 40.761719 56.160156 C 40.8125 56.183594 40.917969 56.199219 41.074219 56.203125 L 41.074219 56.296875 L 39.769531 56.296875 L 39.769531 56.203125 C 39.933594 56.199219 40.039062 56.183594 40.085938 56.160156 C 40.132812 56.136719 40.167969 56.101562 40.1875 56.058594 C 40.203125 56.019531 40.214844 55.894531 40.214844 55.683594 L 40.214844 53.808594 C 40.214844 53.558594 40.207031 53.394531 40.1875 53.324219 C 40.175781 53.269531 40.15625 53.230469 40.125 53.203125 C 40.09375 53.175781 40.054688 53.164062 40.007812 53.164062 C 39.945312 53.164062 39.859375 53.191406 39.746094 53.242188 Z M 39.707031 53.164062 "/>
<path fill="none" stroke-width="0.75" stroke-linecap="butt" stroke-linejoin="miter" stroke="rgb(0%, 0%, 0%)" stroke-opacity="1" stroke-miterlimit="10" d="M 175.125 8.8125 L 177.5625 8.8125 L 177.5625 101.0625 L 175.125 101.0625 "/>
<path fill="none" stroke-width="0.75" stroke-linecap="butt" stroke-linejoin="miter" stroke="rgb(0%, 0%, 0%)" stroke-opacity="1" stroke-miterlimit="10" d="M 174.375 101.90625 L 174.375 104.34375 L 87.1875 104.34375 L 87.1875 101.90625 "/>
<path fill="none" stroke-width="0.75" stroke-linecap="butt" stroke-linejoin="miter" stroke="rgb(0%, 0%, 0%)" stroke-opacity="1" stroke-miterlimit="10" d="M 85.03125 101.90625 L 85.03125 104.34375 L 14.4375 104.34375 L 14.4375 101.90625 "/>
<path fill-rule="nonzero" fill="rgb(92.939758%, 10.980225%, 14.117432%)" fill-opacity="1" d="M 35.722656 23.917969 L 39.296875 30.398438 L 32.402344 27.703125 Z M 35.722656 23.917969 "/>
<path fill-rule="nonzero" fill="rgb(92.939758%, 10.980225%, 14.117432%)" fill-opacity="1" d="M 163.4375 94.742188 L 169.25 99.328125 L 161.851562 99.523438 Z M 163.4375 94.742188 "/>
<path fill="none" stroke-width="0.75" stroke-linecap="butt" stroke-linejoin="miter" stroke="rgb(0%, 0%, 0%)" stroke-opacity="1" stroke-miterlimit="10" d="M 88.6875 8.8125 L 91.125 8.8125 L 91.125 71.375 L 88.6875 71.375 "/>
<path fill="none" stroke-width="0.75" stroke-linecap="butt" stroke-linejoin="miter" stroke="rgb(92.939758%, 10.980225%, 14.117432%)" stroke-opacity="1" stroke-miterlimit="10" d="M 15.1875 8.8125 L 86.0625 72.375 "/>
<path fill="none" stroke-width="0.75" stroke-linecap="butt" stroke-linejoin="miter" stroke="rgb(92.939758%, 10.980225%, 14.117432%)" stroke-opacity="1" stroke-miterlimit="10" d="M 86.0625 72.375 L 174.5625 101.0625 "/>
</svg>
